<?xml version="1.0" encoding="utf-8"?>
<!-- Generator: Adobe Illustrator 26.0.1, SVG Export Plug-In . SVG Version: 6.00 Build 0)  -->
<svg version="1.1" id="Layer_1" xmlns="http://www.w3.org/2000/svg" xmlns:xlink="http://www.w3.org/1999/xlink" x="0px" y="0px"
	 viewBox="0 0 190.6 67" style="enable-background:new 0 0 190.6 67;" xml:space="preserve">
<style type="text/css">
	.st0{fill-rule:evenodd;clip-rule:evenodd;fill:#0C51A3;}
	.st1{fill:url(#SVGID_1_);}
	.st2{fill:#283545;stroke:#283545;stroke-width:0.1;stroke-linecap:round;stroke-linejoin:round;}
	.st3{fill:#283545;}
</style>
<g id="logo">
	<path class="st0" d="M22.9,42.7V24.3l-20,22.9c4.9,6.9,12.7,11,21.1,11h0.2c10.2-0.1,19.4-6.1,23.6-15.4L22.9,42.7L22.9,42.7z"/>
	<path class="st0" d="M25.5,22.5V40l20.1-22.1C40.9,10.7,32.8,6.4,24.2,6.3H24C13.5,6.4,4,12.8,0,22.5H25.5z"/>
	<path class="st0" d="M62.6,15.3c-1.7-0.1-3.3,0.7-4.3,2c-1.1,1.4-1.7,3.1-1.6,4.9v21.5H65l0.1-10.9h18.7V26l-18.9,0.1
		c-0.1-1.6-0.1-3.1,1-3.7c1.5-0.8,4.2-0.5,6.9-0.5h11v-6.7C78.6,15.2,68,15.2,62.6,15.3z"/>
	<polygon class="st0" points="117.4,15.2 109.2,15.2 102.5,25 95.7,15.2 87.2,15.2 96.9,29.1 87.2,43.6 95.2,43.7 102.4,33.3 
		109.4,43.7 117.8,43.7 107.8,29.2 	"/>
	<path class="st0" d="M142.6,15.2h-18.3c-3.1,0-5.5,2.5-5.6,5.6v17.3c0,3.1,2.5,5.6,5.6,5.6h18.3c3.1,0,5.5-2.5,5.6-5.6V34h-6.9v0.3
		c0.1,1.6-1.2,2.9-2.8,3c0,0,0,0,0,0h-9.3c-1.6,0-2.9-1.4-2.8-3l0,0v-9.2c0-1.6,1.2-3,2.8-3h9.3c1.4,0.1,2.6,1.2,2.7,2.6h6.9v-3.8
		C148.1,17.8,145.6,15.3,142.6,15.2z"/>
	<path class="st0" d="M184.8,15.2H158c-3.2,0-5.9,3.5-5.9,7.8v20.7h8.1v-5.8l0,0V25.2c0.2-2,2-3.6,4-3.4h2.2c0.4,0,0.7,0,1.1,0.1
		v16.1l0,0v5.8h8V21.9c0.3-0.1,0.7-0.1,1.1-0.1h2.4c1.9,0,3.5,1.5,3.6,3.5v18.5h7.9V23C190.6,18.7,188,15.2,184.8,15.2z"/>
</g>
<g id="tagline">
	
		<linearGradient id="SVGID_1_" gradientUnits="userSpaceOnUse" x1="87.28" y1="352.98" x2="159.89" y2="280.37" gradientTransform="matrix(1 0 0 1 0 -262.7)">
		<stop  offset="0" style="stop-color:#EED383"/>
		<stop  offset="4.000000e-02" style="stop-color:#F2D07B"/>
		<stop  offset="0.21" style="stop-color:#FFC65C"/>
		<stop  offset="0.55" style="stop-color:#EEE0A4"/>
		<stop  offset="0.76" style="stop-color:#FDE58D"/>
		<stop  offset="0.83" style="stop-color:#FFD367"/>
		<stop  offset="1" style="stop-color:#EEBE47"/>
	</linearGradient>
	<rect x="56.5" y="48.4" class="st1" width="134.1" height="11.2"/>
	<path class="st2" d="M65.3,51.3v1c-0.6-0.3-1.2-0.5-1.8-0.5c-0.7,0-1.3,0.2-1.8,0.7c-0.5,0.4-0.7,1.1-0.7,1.7
		c0,0.7,0.3,1.3,0.8,1.7c0.5,0.5,1.2,0.7,1.9,0.7c0.6,0,1.2-0.2,1.8-0.5v1c-0.6,0.3-1.2,0.5-1.8,0.5c-0.9,0-1.8-0.3-2.5-1
		c-0.7-0.6-1-1.5-1-2.4c0-0.9,0.4-1.7,1-2.3c0.6-0.7,1.5-1,2.4-1C64.1,50.9,64.7,51,65.3,51.3z"/>
	<path class="st2" d="M66.7,51h0.8v5.5h2v0.8h-2.9L66.7,51z"/>
	<path class="st2" d="M70.7,51h0.8v6.2h-0.8V51z"/>
	<path class="st2" d="M73.1,51h3.5v0.8h-2.6v1.6h2.6v0.8h-2.6v2.2h2.6v0.8h-3.5V51z"/>
	<path class="st2" d="M77.7,50.8l4.6,4.8V51h0.9v6.6l-4.6-4.7v4.4h-0.8L77.7,50.8z"/>
	<path class="st2" d="M84.3,51h3.8v0.8h-1.4v5.4h-0.8v-5.4h-1.5V51z"/>
	<path class="st2" d="M92.3,51h3.5v0.8h-2.6v1.6h2.6v0.8h-2.6v3h-0.8V51z"/>
	<path class="st2" d="M97,51h0.8v6.2H97V51z"/>
	<path class="st2" d="M99.6,51h1.4c0.6,0,1.2,0.1,1.7,0.5c0.7,0.6,0.8,1.6,0.3,2.3l-0.1,0.1c-0.3,0.4-0.8,0.6-1.3,0.7l1.8,2.7h-1
		l-1.7-2.6h-0.2v2.6h-0.8L99.6,51z M100.5,51.8V54c1.3,0,1.9-0.3,1.9-1.1c0-0.2-0.1-0.5-0.2-0.7c-0.1-0.2-0.4-0.3-0.6-0.3
		C101.2,51.8,100.8,51.8,100.5,51.8z"/>
	<path class="st2" d="M108.6,51.7l-0.7,0.6c-0.1-0.2-0.3-0.3-0.5-0.4c-0.4-0.2-1-0.2-1.4,0.1c-0.3,0.2-0.3,0.6-0.1,0.9L106,53
		c0.3,0.2,0.5,0.3,0.8,0.5c0.3,0.1,0.6,0.3,0.9,0.5c0.2,0.1,0.4,0.3,0.6,0.5c0.1,0.2,0.2,0.4,0.3,0.6c0.1,0.2,0.1,0.4,0.1,0.6
		c0,0.5-0.2,1-0.6,1.3c-0.4,0.4-0.9,0.6-1.4,0.5c-0.5,0-1-0.1-1.4-0.4c-0.4-0.3-0.8-0.8-0.9-1.3l0.9-0.2c0.2,0.6,0.8,1,1.4,1
		c0.3,0,0.6-0.1,0.8-0.3c0.4-0.3,0.5-0.9,0.2-1.2c0,0,0,0,0,0l0,0c-0.1-0.2-0.2-0.3-0.4-0.4c-0.2-0.2-0.5-0.3-0.8-0.4
		c-0.3-0.1-0.5-0.2-0.8-0.4c-0.2-0.1-0.3-0.3-0.5-0.4c-0.1-0.2-0.2-0.3-0.3-0.5c-0.1-0.2-0.1-0.3-0.1-0.5c0-0.4,0.2-0.9,0.6-1.2
		c0.4-0.3,0.8-0.5,1.3-0.5c0.3,0,0.7,0.1,1,0.2C108.1,51.2,108.3,51.4,108.6,51.7z"/>
	<path class="st2" d="M109.6,51h3.8v0.8H112v5.4h-0.8v-5.4h-1.5L109.6,51z"/>
	<path class="st2" d="M120.3,51h3.8v0.8h-1.5v5.4h-0.8v-5.4h-1.5L120.3,51z"/>
	<path class="st2" d="M125.4,51h1.3c0.6,0,1.2,0.1,1.7,0.5c0.4,0.3,0.6,0.8,0.6,1.3c0,0.4-0.1,0.8-0.4,1.1c-0.3,0.4-0.8,0.6-1.3,0.7
		l1.8,2.7h-1l-1.8-2.6h-0.2v2.6h-0.8V51z M126.3,51.8V54c1.3,0,1.9-0.3,1.9-1.1c0-0.2-0.1-0.5-0.2-0.7c-0.2-0.2-0.4-0.3-0.6-0.3
		C127.1,51.8,126.7,51.8,126.3,51.8L126.3,51.8z"/>
	<path class="st2" d="M132.9,50.8l3,6.5H135l-0.7-1.6h-2.6l-0.7,1.6H130L132.9,50.8z M132.9,52.8l-1,2.2h2L132.9,52.8z"/>
	<path class="st2" d="M136.9,51h1.6c1-0.1,2,0.3,2.7,0.9c0.6,0.6,0.9,1.4,0.9,2.2c0,0.8-0.3,1.6-0.9,2.2c-0.7,0.7-1.7,1-2.6,0.9H137
		L136.9,51z M137.8,51.9v4.6l0,0c0.5,0,1,0,1.4-0.1c0.3-0.1,0.6-0.2,0.9-0.4c0.3-0.2,0.5-0.5,0.7-0.8c0.2-0.3,0.2-0.7,0.3-1
		c0-0.5-0.1-0.9-0.4-1.3c-0.2-0.4-0.6-0.6-1-0.8c-0.5-0.2-1-0.2-1.5-0.2L137.8,51.9z"/>
	<path class="st2" d="M143.2,51h3.5v0.8H144v1.6h2.6v0.8H144v2.2h2.6v0.8h-3.5L143.2,51z"/>
	<path class="st2" d="M148,51h1.4c0.6,0,1.2,0.1,1.6,0.5c0.4,0.3,0.6,0.8,0.6,1.3c0,0.4-0.1,0.8-0.4,1.1c-0.3,0.4-0.8,0.6-1.3,0.7
		l1.8,2.7h-1l-1.8-2.6h-0.2v2.6H148V51z M148.9,51.8V54c1.3,0,1.9-0.3,1.9-1.1c0-0.2-0.1-0.5-0.2-0.7c-0.2-0.2-0.4-0.3-0.6-0.3
		C149.6,51.8,149.2,51.8,148.9,51.8L148.9,51.8z"/>
	<path class="st2" d="M156.2,51h1.5c1-0.1,2,0.3,2.7,0.9c0.6,0.6,0.9,1.4,0.9,2.2c0,0.8-0.3,1.6-0.9,2.2c-0.7,0.7-1.7,1-2.6,0.9
		h-1.5L156.2,51z M157,51.9v4.6h0.1c0.5,0,1,0,1.4-0.1c0.3-0.1,0.6-0.2,0.9-0.4c0.3-0.2,0.5-0.5,0.7-0.8c0.2-0.3,0.2-0.7,0.3-1
		c0-0.5-0.1-0.9-0.4-1.3c-0.2-0.4-0.6-0.6-1-0.8c-0.5-0.2-1-0.2-1.5-0.2L157,51.9z"/>
	<path class="st2" d="M162.6,51h1.4c0.6,0,1.2,0.1,1.6,0.5c0.4,0.3,0.6,0.8,0.6,1.3c0,0.4-0.1,0.8-0.4,1.1c-0.3,0.4-0.8,0.6-1.3,0.7
		l1.8,2.7h-1l-1.7-2.6h-0.2v2.6h-0.8L162.6,51z M163.4,51.8V54c1.3,0,1.9-0.3,1.9-1.1c0-0.2-0.1-0.5-0.2-0.7
		c-0.2-0.2-0.4-0.3-0.6-0.3C164.2,51.8,163.8,51.8,163.4,51.8z"/>
	<path class="st2" d="M167.7,51h0.9v6.2h-0.8L167.7,51z"/>
	<path class="st2" d="M169.7,51.1h0.9l2,4.4l2-4.4h0.9l-2.9,6.4L169.7,51.1z"/>
	<path class="st2" d="M176.4,51h3.5v0.8h-2.6v1.6h2.6v0.8h-2.6v2.2h2.6v0.8h-3.5V51z"/>
	<path class="st2" d="M181.1,50.8l4.6,4.8V51h0.9v6.6l-4.6-4.7v4.4h-0.9L181.1,50.8z"/>
	<circle class="st3" cx="117.1" cy="54.7" r="0.8"/>
</g>
</svg>
